<?xml version="1.0" encoding="UTF-8" standalone="no"?>
<!-- Created with Inkscape (http://www.inkscape.org/) -->

<svg
   xmlns:dc="http://purl.org/dc/elements/1.1/"
   xmlns:cc="http://creativecommons.org/ns#"
   xmlns:rdf="http://www.w3.org/1999/02/22-rdf-syntax-ns#"
   xmlns:svg="http://www.w3.org/2000/svg"
   xmlns="http://www.w3.org/2000/svg"
   xmlns:sodipodi="http://sodipodi.sourceforge.net/DTD/sodipodi-0.dtd"
   xmlns:inkscape="http://www.inkscape.org/namespaces/inkscape"
   version="1.1"
   id="svg2"
   xml:space="preserve"
   width="1122.6667"
   height="793.33331"
   viewBox="0 0 1122.6667 793.33328"
   sodipodi:docname="plotlj.svg"
   inkscape:version="0.92.2 2405546, 2018-03-11"
   inkscape:export-filename="/home/matteo/Work/Scripts/lammps/plot-gb-rotating/plotlj.png"
   inkscape:export-xdpi="96"
   inkscape:export-ydpi="96"><metadata
     id="metadata8"><rdf:RDF><cc:Work
         rdf:about=""><dc:format>image/svg+xml</dc:format><dc:type
           rdf:resource="http://purl.org/dc/dcmitype/StillImage" /><dc:title /></cc:Work></rdf:RDF></metadata><defs
     id="defs6" /><sodipodi:namedview
     pagecolor="#ffffff"
     bordercolor="#666666"
     borderopacity="1"
     objecttolerance="10"
     gridtolerance="10"
     guidetolerance="10"
     inkscape:pageopacity="0"
     inkscape:pageshadow="2"
     inkscape:window-width="1920"
     inkscape:window-height="1054"
     id="namedview4"
     showgrid="false"
     inkscape:zoom="1.0827731"
     inkscape:cx="548.40361"
     inkscape:cy="396.66666"
     inkscape:window-x="0"
     inkscape:window-y="0"
     inkscape:window-maximized="0"
     inkscape:current-layer="g10" /><g
     id="g10"
     inkscape:groupmode="layer"
     inkscape:label="ink_ext_XXXXXX"
     transform="matrix(1.3333333,0,0,-1.3333333,0,793.33326)">
<circle
   style="opacity:1;vector-effect:none;fill:#ff0000;fill-opacity:0.5;stroke-width:1.76207697;stroke-linecap:butt;stroke-linejoin:miter;stroke-miterlimit:4;stroke-dasharray:none;stroke-dashoffset:0;stroke-opacity:1"
   id="path5253"
   cx="63.725254"
   cy="-261.82767"
   r="31.862631"
   transform="scale(1,-1)" /><ellipse
   style="opacity:1;vector-effect:none;fill:#0000ff;fill-opacity:0.5;stroke-width:1.70445287;stroke-linecap:butt;stroke-linejoin:miter;stroke-miterlimit:4;stroke-dasharray:none;stroke-dashoffset:0;stroke-opacity:1"
   id="path5264"
   cx="129.1915"
   cy="-261.94464"
   transform="scale(1,-1)"
   rx="32.208961"
   ry="32.208965" /><g
   transform="translate(-30.91706,190.00779)"
   inkscape:label="ink_ext_XXXXXX"
   id="g5452"><g
     transform="scale(0.1)"
     id="g5454"><path
       inkscape:connector-curvature="0"
       id="path5456"
       style="fill:none;stroke:#000000;stroke-width:5;stroke-linecap:butt;stroke-linejoin:miter;stroke-miterlimit:3.79999995;stroke-dasharray:none;stroke-opacity:1"
       d="m 929,720 h 31.5 m 2941,0 H 3870" /><g
       transform="scale(10)"
       id="g5458"><text
         id="text5462"
         style="font-variant:normal;font-weight:normal;font-size:11px;font-family:Helvetica;-inkscape-font-specification:Helvetica;writing-mode:lr-tb;fill:#000000;fill-opacity:1;fill-rule:nonzero;stroke:none"
         transform="matrix(1,0,0,-1,76.5215,68.3352)"><tspan
           id="tspan5460"
           sodipodi:role="line"
           y="0"
           x="0 3.6630001">-2</tspan></text>
</g><path
       inkscape:connector-curvature="0"
       id="path5464"
       style="fill:none;stroke:#000000;stroke-width:5;stroke-linecap:butt;stroke-linejoin:miter;stroke-miterlimit:3.79999995;stroke-dasharray:none;stroke-opacity:1"
       d="m 929,1081.5 h 31.5 m 2941,0 H 3870" /><g
       transform="scale(10)"
       id="g5466"><text
         id="text5470"
         style="font-variant:normal;font-weight:normal;font-size:11px;font-family:Helvetica;-inkscape-font-specification:Helvetica;writing-mode:lr-tb;fill:#000000;fill-opacity:1;fill-rule:nonzero;stroke:none"
         transform="matrix(1,0,0,-1,67.348,104.485)"><tspan
           id="tspan5468"
           sodipodi:role="line"
           y="0"
           x="0 3.6630001 9.7790003 12.837">-1.5</tspan></text>
</g><path
       inkscape:connector-curvature="0"
       id="path5472"
       style="fill:none;stroke:#000000;stroke-width:5;stroke-linecap:butt;stroke-linejoin:miter;stroke-miterlimit:3.79999995;stroke-dasharray:none;stroke-opacity:1"
       d="m 929,1442.5 h 31.5 m 2941,0 H 3870" /><g
       transform="scale(10)"
       id="g5474"><text
         id="text5478"
         style="font-variant:normal;font-weight:normal;font-size:11px;font-family:Helvetica;-inkscape-font-specification:Helvetica;writing-mode:lr-tb;fill:#000000;fill-opacity:1;fill-rule:nonzero;stroke:none"
         transform="matrix(1,0,0,-1,76.5215,140.585)"><tspan
           id="tspan5476"
           sodipodi:role="line"
           y="0"
           x="0 3.6630001">-1</tspan></text>
</g><path
       inkscape:connector-curvature="0"
       id="path5480"
       style="fill:none;stroke:#000000;stroke-width:5;stroke-linecap:butt;stroke-linejoin:miter;stroke-miterlimit:3.79999995;stroke-dasharray:none;stroke-opacity:1"
       d="m 929,1804 h 31.5 m 2941,0 H 3870" /><g
       transform="scale(10)"
       id="g5482"><text
         id="text5486"
         style="font-variant:normal;font-weight:normal;font-size:11px;font-family:Helvetica;-inkscape-font-specification:Helvetica;writing-mode:lr-tb;fill:#000000;fill-opacity:1;fill-rule:nonzero;stroke:none"
         transform="matrix(1,0,0,-1,67.348,176.735)"><tspan
           id="tspan5484"
           sodipodi:role="line"
           y="0"
           x="0 3.6630001 9.7790003 12.837">-0.5</tspan></text>
</g><path
       inkscape:connector-curvature="0"
       id="path5488"
       style="fill:none;stroke:#000000;stroke-width:5;stroke-linecap:butt;stroke-linejoin:miter;stroke-miterlimit:3.79999995;stroke-dasharray:none;stroke-opacity:1"
       d="m 929,2165 h 31.5 m 2941,0 H 3870" /><g
       transform="scale(10)"
       id="g5490"><text
         id="text5494"
         style="font-variant:normal;font-weight:normal;font-size:11px;font-family:Helvetica;-inkscape-font-specification:Helvetica;writing-mode:lr-tb;fill:#000000;fill-opacity:1;fill-rule:nonzero;stroke:none"
         transform="matrix(1,0,0,-1,80.1846,212.835)"><tspan
           id="tspan5492"
           y="0"
           x="0">0</tspan></text>
</g><path
       inkscape:connector-curvature="0"
       id="path5496"
       style="fill:none;stroke:#000000;stroke-width:5;stroke-linecap:butt;stroke-linejoin:miter;stroke-miterlimit:3.79999995;stroke-dasharray:none;stroke-opacity:1"
       d="m 929,2526.5 h 31.5 m 2941,0 H 3870" /><g
       transform="scale(10)"
       id="g5498"><text
         id="text5502"
         style="font-variant:normal;font-weight:normal;font-size:11px;font-family:Helvetica;-inkscape-font-specification:Helvetica;writing-mode:lr-tb;fill:#000000;fill-opacity:1;fill-rule:nonzero;stroke:none"
         transform="matrix(1,0,0,-1,71.0111,248.985)"><tspan
           id="tspan5500"
           sodipodi:role="line"
           y="0"
           x="0 6.1160002 9.1739998">0.5</tspan></text>
</g><path
       inkscape:connector-curvature="0"
       id="path5504"
       style="fill:none;stroke:#000000;stroke-width:5;stroke-linecap:butt;stroke-linejoin:miter;stroke-miterlimit:3.79999995;stroke-dasharray:none;stroke-opacity:1"
       d="m 929,2887.5 h 31.5 m 2941,0 H 3870" /><g
       transform="scale(10)"
       id="g5506"><text
         id="text5510"
         style="font-variant:normal;font-weight:normal;font-size:11px;font-family:Helvetica;-inkscape-font-specification:Helvetica;writing-mode:lr-tb;fill:#000000;fill-opacity:1;fill-rule:nonzero;stroke:none"
         transform="matrix(1,0,0,-1,80.1846,285.085)"><tspan
           id="tspan5508"
           y="0"
           x="0">1</tspan></text>
</g><path
       inkscape:connector-curvature="0"
       id="path5512"
       style="fill:none;stroke:#000000;stroke-width:5;stroke-linecap:butt;stroke-linejoin:miter;stroke-miterlimit:3.79999995;stroke-dasharray:none;stroke-opacity:1"
       d="m 929,720 v 31.5 m 0,2136 V 2856" /><g
       transform="scale(10)"
       id="g5514"><text
         id="text5518"
         style="font-variant:normal;font-weight:normal;font-size:11px;font-family:Helvetica;-inkscape-font-specification:Helvetica;writing-mode:lr-tb;fill:#000000;fill-opacity:1;fill-rule:nonzero;stroke:none"
         transform="matrix(1,0,0,-1,91.3713,57.3352)"><tspan
           id="tspan5516"
           y="0"
           x="0">0</tspan></text>
</g><path
       inkscape:connector-curvature="0"
       id="path5520"
       style="fill:none;stroke:#000000;stroke-width:5;stroke-linecap:butt;stroke-linejoin:miter;stroke-miterlimit:3.79999995;stroke-dasharray:none;stroke-opacity:1"
       d="m 1300.5,720 v 31.5 m 0,2136 V 2856" /><g
       transform="scale(10)"
       id="g5522"><text
         id="text5526"
         style="font-variant:normal;font-weight:normal;font-size:11px;font-family:Helvetica;-inkscape-font-specification:Helvetica;writing-mode:lr-tb;fill:#000000;fill-opacity:1;fill-rule:nonzero;stroke:none"
         transform="matrix(1,0,0,-1,123.935,57.3352)"><tspan
           id="tspan5524"
           sodipodi:role="line"
           y="0"
           x="0 6.1160002 9.1739998">0.5</tspan></text>
</g><path
       inkscape:connector-curvature="0"
       id="path5528"
       style="fill:none;stroke:#000000;stroke-width:5;stroke-linecap:butt;stroke-linejoin:miter;stroke-miterlimit:3.79999995;stroke-dasharray:none;stroke-opacity:1"
       d="m 1672,720 v 31.5 m 0,2136 V 2856" /><g
       transform="scale(10)"
       id="g5530"><text
         id="text5534"
         style="font-variant:normal;font-weight:normal;font-size:11px;font-family:Helvetica;-inkscape-font-specification:Helvetica;writing-mode:lr-tb;fill:#000000;fill-opacity:1;fill-rule:nonzero;stroke:none"
         transform="matrix(1,0,0,-1,165.671,57.3352)"><tspan
           id="tspan5532"
           y="0"
           x="0">1</tspan></text>
</g><path
       inkscape:connector-curvature="0"
       id="path5536"
       style="fill:none;stroke:#000000;stroke-width:5;stroke-linecap:butt;stroke-linejoin:miter;stroke-miterlimit:3.79999995;stroke-dasharray:none;stroke-opacity:1"
       d="m 2043.5,720 v 31.5 m 0,2136 V 2856" /><g
       transform="scale(10)"
       id="g5538"><text
         id="text5542"
         style="font-variant:normal;font-weight:normal;font-size:11px;font-family:Helvetica;-inkscape-font-specification:Helvetica;writing-mode:lr-tb;fill:#000000;fill-opacity:1;fill-rule:nonzero;stroke:none"
         transform="matrix(1,0,0,-1,198.235,57.3352)"><tspan
           id="tspan5540"
           sodipodi:role="line"
           y="0"
           x="0 6.1160002 9.1739998">1.5</tspan></text>
</g><path
       inkscape:connector-curvature="0"
       id="path5544"
       style="fill:none;stroke:#000000;stroke-width:5;stroke-linecap:butt;stroke-linejoin:miter;stroke-miterlimit:3.79999995;stroke-dasharray:none;stroke-opacity:1"
       d="m 2415.5,720 v 31.5 m 0,2136 V 2856" /><g
       transform="scale(10)"
       id="g5546"><text
         id="text5550"
         style="font-variant:normal;font-weight:normal;font-size:11px;font-family:Helvetica;-inkscape-font-specification:Helvetica;writing-mode:lr-tb;fill:#000000;fill-opacity:1;fill-rule:nonzero;stroke:none"
         transform="matrix(1,0,0,-1,240.021,57.3352)"><tspan
           id="tspan5548"
           y="0"
           x="0">2</tspan></text>
</g><path
       inkscape:connector-curvature="0"
       id="path5552"
       style="fill:none;stroke:#000000;stroke-width:5;stroke-linecap:butt;stroke-linejoin:miter;stroke-miterlimit:3.79999995;stroke-dasharray:none;stroke-opacity:1"
       d="m 2787,720 v 31.5 m 0,2136 V 2856" /><g
       transform="scale(10)"
       id="g5554"><text
         id="text5558"
         style="font-variant:normal;font-weight:normal;font-size:11px;font-family:Helvetica;-inkscape-font-specification:Helvetica;writing-mode:lr-tb;fill:#000000;fill-opacity:1;fill-rule:nonzero;stroke:none"
         transform="matrix(1,0,0,-1,272.585,57.3352)"><tspan
           id="tspan5556"
           sodipodi:role="line"
           y="0"
           x="0 6.1160002 9.1739998">2.5</tspan></text>
</g><path
       inkscape:connector-curvature="0"
       id="path5560"
       style="fill:none;stroke:#000000;stroke-width:5;stroke-linecap:butt;stroke-linejoin:miter;stroke-miterlimit:3.79999995;stroke-dasharray:none;stroke-opacity:1"
       d="m 3158.5,720 v 31.5 m 0,2136 V 2856" /><g
       transform="scale(10)"
       id="g5562"><text
         id="text5566"
         style="font-variant:normal;font-weight:normal;font-size:11px;font-family:Helvetica;-inkscape-font-specification:Helvetica;writing-mode:lr-tb;fill:#000000;fill-opacity:1;fill-rule:nonzero;stroke:none"
         transform="matrix(1,0,0,-1,314.321,57.3352)"><tspan
           id="tspan5564"
           y="0"
           x="0">3</tspan></text>
</g><path
       inkscape:connector-curvature="0"
       id="path5568"
       style="fill:none;stroke:#000000;stroke-width:5;stroke-linecap:butt;stroke-linejoin:miter;stroke-miterlimit:3.79999995;stroke-dasharray:none;stroke-opacity:1"
       d="m 3530,720 v 31.5 m 0,2136 V 2856" /><g
       transform="scale(10)"
       id="g5570"><text
         id="text5574"
         style="font-variant:normal;font-weight:normal;font-size:11px;font-family:Helvetica;-inkscape-font-specification:Helvetica;writing-mode:lr-tb;fill:#000000;fill-opacity:1;fill-rule:nonzero;stroke:none"
         transform="matrix(1,0,0,-1,346.885,57.3352)"><tspan
           id="tspan5572"
           sodipodi:role="line"
           y="0"
           x="0 6.1160002 9.1739998">3.5</tspan></text>
</g><path
       inkscape:connector-curvature="0"
       id="path5576"
       style="fill:none;stroke:#000000;stroke-width:5;stroke-linecap:butt;stroke-linejoin:miter;stroke-miterlimit:3.79999995;stroke-dasharray:none;stroke-opacity:1"
       d="m 3901.5,720 v 31.5 m 0,2136 V 2856" /><g
       transform="scale(10)"
       id="g5578"><text
         id="text5582"
         style="font-variant:normal;font-weight:normal;font-size:11px;font-family:Helvetica;-inkscape-font-specification:Helvetica;writing-mode:lr-tb;fill:#000000;fill-opacity:1;fill-rule:nonzero;stroke:none"
         transform="matrix(1,0,0,-1,388.621,57.3352)"><tspan
           id="tspan5580"
           y="0"
           x="0">4</tspan></text>
</g><path
       inkscape:connector-curvature="0"
       id="path5584"
       style="fill:none;stroke:#000000;stroke-width:1.25;stroke-linecap:butt;stroke-linejoin:miter;stroke-miterlimit:3.79999995;stroke-dasharray:5, 10;stroke-dashoffset:0;stroke-opacity:1"
       d="M 929,2165 H 3901.5" /><path
       inkscape:connector-curvature="0"
       id="path5586"
       style="fill:none;stroke:#000000;stroke-width:5;stroke-linecap:butt;stroke-linejoin:miter;stroke-miterlimit:3.79999995;stroke-dasharray:none;stroke-opacity:1"
       d="M 929,720 H 3901.5 V 2887.5 H 929 Z" /><path
       inkscape:connector-curvature="0"
       id="path5588"
       style="fill:none;stroke:#0000ff;stroke-width:10;stroke-linecap:butt;stroke-linejoin:miter;stroke-miterlimit:3.79999995;stroke-dasharray:none;stroke-opacity:1"
       d="m 1649,2887.5 0.5,-14.5 0.5,-24.5 0.5,-23.5 1,-23.5 0.5,-23 0.5,-22.5 0.5,-22.5 0.5,-22 1,-22 0.5,-21.5 0.5,-21 0.5,-21 0.5,-20.5 1,-20 0.5,-20 0.5,-19.5 0.5,-19.5 0.5,-19 0.5,-19 1,-18.5 0.5,-18.5 0.5,-18 0.5,-17.5 0.5,-17.5 1,-17.5 0.5,-17 0.5,-16.5 0.5,-16.5 0.5,-16.5 1,-16 0.5,-15.5 0.5,-15.5 0.5,-15.5 0.5,-15 0.5,-15 1,-14.5 0.5,-14.5 0.5,-14 0.5,-14 0.5,-14 1,-13.5 0.5,-13 0.5,-13.5 0.5,-13 0.5,-12.5 1,-12.5 0.5,-12.5 0.5,-12 0.5,-12 0.5,-12 1,-11.5 0.5,-11.5 0.5,-11 0.5,-11.5 0.5,-10.5 0.5,-11 1,-10.5 0.5,-10.5 0.5,-10 0.5,-10.5 0.5,-9.5 1,-10 0.5,-9.5 0.5,-9.5 0.5,-9.5 0.5,-9 1,-9 0.5,-9 0.5,-8.5 0.5,-8.5 0.5,-8.5 0.5,-8 1,-8.5 0.5,-8 0.5,-8 0.5,-7.5 0.5,-7.5 1,-7.5 0.5,-7.5 0.5,-7 0.5,-7.5 0.5,-7 1,-6.5 0.5,-7 0.5,-6.5 0.5,-6.5 0.5,-6.5 1,-6 0.5,-6.5 0.5,-6 0.5,-6 0.5,-6 0.5,-5.5 1,-5.5 0.5,-5.5 0.5,-5.5 0.5,-5.5 0.5,-5 1,-5.5 0.5,-5 0.5,-5 0.5,-4.5 0.5,-5 1,-4.5" /><path
       inkscape:connector-curvature="0"
       id="path5590"
       style="fill:none;stroke:#0000ff;stroke-width:10;stroke-linecap:butt;stroke-linejoin:miter;stroke-miterlimit:3.79999995;stroke-dasharray:none;stroke-opacity:1"
       d="m 1711,1606 0.5,-4.5 0.5,-4.5 0.5,-4.5 0.5,-4.5 0.5,-4 1,-4.5 0.5,-4 0.5,-4 0.5,-4 0.5,-3.5 1,-4 0.5,-3.5 0.5,-3.5 0.5,-3.5 0.5,-3.5 1,-3.5 0.5,-3 0.5,-3.5 0.5,-3 0.5,-3 1,-3 0.5,-3 0.5,-3 0.5,-3 0.5,-2.5 0.5,-2.5 1,-3 0.5,-2.5 0.5,-2.5 0.5,-2.5 0.5,-2 1,-2.5 0.5,-2 0.5,-2.5 0.5,-2 0.5,-2 1,-2 0.5,-2 0.5,-2 0.5,-2 0.5,-1.5 0.5,-2 1,-1.5 0.5,-2 0.5,-1.5 0.5,-1.5 0.5,-1.5 1,-1.5 0.5,-1.5 0.5,-1 0.5,-1.5 0.5,-1.5 1,-1 0.5,-1 0.5,-1.5 0.5,-1 0.5,-1 0.5,-1 1,-1 0.5,-1 0.5,-1 0.5,-0.5 0.5,-1 1,-1 0.5,-0.5 0.5,-1 0.5,-0.5 0.5,-0.5 1,-0.5 0.5,-1 0.5,-0.5 0.5,-0.5 0.5,-0.5 h 1 l 0.5,-0.5 0.5,-0.5 0.5,-0.5 h 0.5 l 0.5,-0.5 h 1 l 0.5,-0.5 h 1 l 0.5,-0.5 h 5 l 0.5,0.5 h 1 l 1,0.5 h 1 l 0.5,0.5 0.5,0.5 h 1 l 0.5,0.5 h 0.5 l 0.5,0.5" /><path
       inkscape:connector-curvature="0"
       id="path5592"
       style="fill:none;stroke:#0000ff;stroke-width:10;stroke-linecap:butt;stroke-linejoin:miter;stroke-miterlimit:3.79999995;stroke-dasharray:none;stroke-opacity:1"
       d="m 1772.5,1445.5 0.5,0.5 1,0.5 0.5,0.5 0.5,0.5 h 0.5 l 0.5,0.5 1,0.5 0.5,0.5 0.5,1 0.5,0.5 0.5,0.5 0.5,0.5 1,0.5 0.5,0.5 0.5,1 0.5,0.5 0.5,0.5 1,1 0.5,0.5 0.5,1 0.5,0.5 0.5,1 1,0.5 0.5,1 0.5,0.5 0.5,1 0.5,1 0.5,0.5 1,1 0.5,1 0.5,0.5 0.5,1 0.5,1 1,1 0.5,1 0.5,0.5 0.5,1 0.5,1 1,1 0.5,1 0.5,1 0.5,1 0.5,1 1,1 0.5,1 0.5,1 0.5,1 0.5,1.5 0.5,1 1,1 0.5,1 0.5,1 0.5,1 0.5,1.5 1,1 0.5,1 0.5,1 0.5,1.5 0.5,1 1,1 0.5,1.5 0.5,1 0.5,1 0.5,1.5 0.5,1 1,1 0.5,1.5 0.5,1 0.5,1.5 0.5,1 1,1 0.5,1.5 0.5,1 0.5,1.5 0.5,1 1,1.5 0.5,1 0.5,1.5 0.5,1 0.5,1.5 1,1.5 0.5,1 0.5,1.5 0.5,1 0.5,1.5 0.5,1 1,1.5 0.5,1.5 0.5,1 0.5,1.5 0.5,1.5 1,1 0.5,1.5 0.5,1 0.5,1.5 0.5,1.5 1,1 0.5,1.5 0.5,1.5 0.5,1 0.5,1.5 0.5,1.5 1,1.5 0.5,1" /><path
       inkscape:connector-curvature="0"
       id="path5594"
       style="fill:none;stroke:#0000ff;stroke-width:10;stroke-linecap:butt;stroke-linejoin:miter;stroke-miterlimit:3.79999995;stroke-dasharray:none;stroke-opacity:1"
       d="m 1834.5,1551.5 0.5,1.5 0.5,1.5 0.5,1 1,1.5 0.5,1.5 0.5,1.5 0.5,1 0.5,1.5 1,1.5 0.5,1.5 0.5,1 0.5,1.5 0.5,1.5 0.5,1 1,1.5 0.5,1.5 0.5,1.5 0.5,1.5 0.5,1 1,1.5 0.5,1.5 0.5,1.5 0.5,1 0.5,1.5 1,1.5 0.5,1.5 0.5,1 0.5,1.5 0.5,1.5 1,1.5 0.5,1 0.5,1.5 0.5,1.5 0.5,1.5 0.5,1.5 1,1 0.5,1.5 0.5,1.5 0.5,1.5 0.5,1 1,1.5 0.5,1.5 0.5,1.5 0.5,1 0.5,1.5 1,1.5 0.5,1.5 0.5,1 0.5,1.5 0.5,1.5 0.5,1.5 1,1.5 0.5,1 0.5,1.5 0.5,1.5 0.5,1.5 1,1 0.5,1.5 0.5,1.5 0.5,1 0.5,1.5 1,1.5 0.5,1.5 0.5,1 0.5,1.5 0.5,1.5 1,1.5 0.5,1 0.5,1.5 0.5,1.5 0.5,1 0.5,1.5 1,1.5 0.5,1.5 0.5,1 0.5,1.5 0.5,1.5 1,1 0.5,1.5 0.5,1.5 0.5,1 0.5,1.5 1,1.5 0.5,1 0.5,1.5 0.5,1.5 0.5,1 0.5,1.5 1,1.5 0.5,1 0.5,1.5 0.5,1.5 0.5,1 1,1.5 0.5,1 0.5,1.5 0.5,1.5 0.5,1 1,1.5 0.5,1 0.5,1.5 0.5,1.5 0.5,1 1,1.5" /><path
       inkscape:connector-curvature="0"
       id="path5596"
       style="fill:none;stroke:#0000ff;stroke-width:10;stroke-linecap:butt;stroke-linejoin:miter;stroke-miterlimit:3.79999995;stroke-dasharray:none;stroke-opacity:1"
       d="m 1896.5,1693 0.5,1 0.5,1.5 0.5,1.5 0.5,1 0.5,1.5 1,1 0.5,1.5 0.5,1 0.5,1.5 0.5,1 1,1.5 0.5,1 0.5,1.5 0.5,1 0.5,1.5 1,1 0.5,1.5 0.5,1 0.5,1.5 0.5,1 0.5,1.5 1,1 0.5,1.5 0.5,1 0.5,1.5 0.5,1 1,1.5 0.5,1 0.5,1.5 0.5,1 0.5,1.5 1,1 0.5,1 0.5,1.5 0.5,1 0.5,1.5 0.5,1 1,1 0.5,1.5 0.5,1 0.5,1.5 0.5,1 1,1 0.5,1.5 0.5,1 0.5,1 0.5,1.5 1,1 0.5,1 0.5,1.5 0.5,1 0.5,1 1,1.5 0.5,1 0.5,1 0.5,1.5 0.5,1 0.5,1 1,1 0.5,1.5 0.5,1 0.5,1 0.5,1.5 1,1 0.5,1 0.5,1 0.5,1.5 0.5,1 1,1 0.5,1 0.5,1 0.5,1.5 0.5,1 0.5,1 1,1 0.5,1 0.5,1.5 0.5,1 0.5,1 1,1 0.5,1 0.5,1.5 0.5,1 0.5,1 1,1 0.5,1 0.5,1 0.5,1 0.5,1 1,1.5 0.5,1 0.5,1 0.5,1 0.5,1 0.5,1 1,1 0.5,1 0.5,1 0.5,1 0.5,1 1,1 0.5,1.5 0.5,1 0.5,1" /><path
       inkscape:connector-curvature="0"
       id="path5598"
       style="fill:none;stroke:#0000ff;stroke-width:10;stroke-linecap:butt;stroke-linejoin:miter;stroke-miterlimit:3.79999995;stroke-dasharray:none;stroke-opacity:1"
       d="m 1958,1813.5 0.5,1 1,1 0.5,1 0.5,1 0.5,1 0.5,1 0.5,1 1,1 0.5,1 0.5,1 0.5,1 0.5,1 1,1 0.5,1 0.5,1 0.5,0.5 0.5,1 1,1 0.5,1 0.5,1 0.5,1 0.5,1 1,1 0.5,1 0.5,1 0.5,1 0.5,1 0.5,0.5 1,1 0.5,1 0.5,1 0.5,1 0.5,1 1,1 0.5,1 0.5,0.5 0.5,1 0.5,1 1,1 0.5,1 0.5,1 0.5,0.5 0.5,1 0.5,1 1,1 0.5,1 0.5,0.5 0.5,1 0.5,1 1,1 0.5,0.5 0.5,1 0.5,1 0.5,1 1,0.5 0.5,1 0.5,1 0.5,1 0.5,0.5 0.5,1 1,1 0.5,1 0.5,0.5 0.5,1 0.5,1 1,0.5 0.5,1 0.5,1 0.5,0.5 0.5,1 1,1 0.5,0.5 0.5,1 0.5,1 0.5,0.5 1,1 0.5,1 0.5,0.5 0.5,1 0.5,1 0.5,0.5 1,1 0.5,0.5 0.5,1 0.5,1 0.5,0.5 1,1 0.5,0.5 0.5,1 0.5,1 0.5,0.5 1,1 0.5,0.5 0.5,1 0.5,0.5 0.5,1 0.5,0.5 1,1 0.5,1 0.5,0.5 0.5,1 0.5,0.5 1,1 0.5,0.5" /><path
       inkscape:connector-curvature="0"
       id="path5600"
       style="fill:none;stroke:#0000ff;stroke-width:10;stroke-linecap:butt;stroke-linejoin:miter;stroke-miterlimit:3.79999995;stroke-dasharray:none;stroke-opacity:1"
       d="m 2020,1905 0.5,1 0.5,0.5 0.5,1 1,0.5 0.5,1 0.5,0.5 0.5,1 0.5,0.5 1,1 0.5,0.5 0.5,1 0.5,0.5 0.5,0.5 0.5,1 1,0.5 0.5,1 0.5,0.5 0.5,1 0.5,0.5 1,1 0.5,0.5 0.5,0.5 0.5,1 0.5,0.5 1,1 0.5,0.5 0.5,0.5 0.5,1 0.5,0.5 0.5,1 1,0.5 0.5,0.5 0.5,1 0.5,0.5 0.5,0.5 1,1 0.5,0.5 0.5,0.5 0.5,1 0.5,0.5 1,0.5 0.5,1 0.5,0.5 0.5,0.5 0.5,1 1,0.5 0.5,0.5 0.5,1 0.5,0.5 0.5,0.5 0.5,1 1,0.5 0.5,0.5 0.5,0.5 0.5,1 0.5,0.5 1,0.5 0.5,1 0.5,0.5 0.5,0.5 0.5,0.5 1,1 0.5,0.5 0.5,0.5 0.5,0.5 0.5,1 0.5,0.5 1,0.5 0.5,0.5 0.5,0.5 0.5,1 0.5,0.5 1,0.5 0.5,0.5 0.5,1 0.5,0.5 0.5,0.5 1,0.5 0.5,0.5 0.5,1 0.5,0.5 0.5,0.5 1,0.5 0.5,0.5 0.5,0.5 0.5,1 0.5,0.5 0.5,0.5 1,0.5 0.5,0.5 0.5,0.5 0.5,0.5 0.5,1 1,0.5 0.5,0.5 0.5,0.5 0.5,0.5 0.5,0.5 1,0.5 0.5,0.5 0.5,1 0.5,0.5 0.5,0.5 0.5,0.5" /><path
       inkscape:connector-curvature="0"
       id="path5602"
       style="fill:none;stroke:#0000ff;stroke-width:10;stroke-linecap:butt;stroke-linejoin:miter;stroke-miterlimit:3.79999995;stroke-dasharray:none;stroke-opacity:1"
       d="m 2081.5,1972.5 1,0.5 0.5,0.5 0.5,0.5 0.5,0.5 0.5,0.5 1,0.5 0.5,1 0.5,0.5 0.5,0.5 0.5,0.5 1,0.5 0.5,0.5 0.5,0.5 0.5,0.5 0.5,0.5 0.5,0.5 1,0.5 0.5,0.5 0.5,0.5 0.5,0.5 0.5,0.5 1,0.5 0.5,0.5 0.5,0.5 0.5,0.5 0.5,0.5 1,0.5 0.5,0.5 0.5,0.5 0.5,0.5 0.5,0.5 1,0.5 0.5,0.5 0.5,0.5 0.5,0.5 0.5,0.5 0.5,0.5 1,0.5 0.5,0.5 0.5,0.5 0.5,0.5 0.5,0.5 1,0.5 0.5,0.5 0.5,0.5 0.5,0.5 0.5,0.5 1,0.5 0.5,0.5 0.5,0.5 0.5,0.5 0.5,0.5 0.5,0.5 1,0.5 0.5,0.5 h 0.5 l 0.5,0.5 0.5,0.5 1,0.5 0.5,0.5 0.5,0.5 0.5,0.5 0.5,0.5 1,0.5 0.5,0.5 0.5,0.5 h 0.5 l 0.5,0.5 1,0.5 0.5,0.5 0.5,0.5 0.5,0.5 0.5,0.5 0.5,0.5 h 1 l 0.5,0.5 0.5,0.5 0.5,0.5 0.5,0.5 1,0.5 0.5,0.5 0.5,0.5 h 0.5 l 0.5,0.5 1,0.5 0.5,0.5 0.5,0.5 0.5,0.5 h 0.5 l 0.5,0.5 1,0.5 0.5,0.5 0.5,0.5 0.5,0.5 h 0.5 l 1,0.5 0.5,0.5 0.5,0.5 0.5,0.5 h 0.5 l 1,0.5 0.5,0.5 0.5,0.5 0.5,0.5" /><path
       inkscape:connector-curvature="0"
       id="path5604"
       style="fill:none;stroke:#0000ff;stroke-width:10;stroke-linecap:butt;stroke-linejoin:miter;stroke-miterlimit:3.79999995;stroke-dasharray:none;stroke-opacity:1"
       d="m 2143.5,2021.5 h 0.5 l 1,0.5 0.5,0.5 0.5,0.5 0.5,0.5 h 0.5 l 0.5,0.5 1,0.5 0.5,0.5 0.5,0.5 h 0.5 l 0.5,0.5 1,0.5 0.5,0.5 h 0.5 l 0.5,0.5 0.5,0.5 1,0.5 h 0.5 l 0.5,0.5 0.5,0.5 0.5,0.5 h 0.5 l 1,0.5 0.5,0.5 0.5,0.5 h 0.5 l 0.5,0.5 1,0.5 0.5,0.5 h 0.5 l 0.5,0.5 0.5,0.5 h 1 l 0.5,0.5 0.5,0.5 0.5,0.5 h 0.5 l 0.5,0.5 1,0.5 h 0.5 l 0.5,0.5 0.5,0.5 h 0.5 l 1,0.5 0.5,0.5 0.5,0.5 h 0.5 l 0.5,0.5 1,0.5 h 0.5 l 0.5,0.5 0.5,0.5 h 0.5 l 1,0.5 0.5,0.5 h 0.5 l 0.5,0.5 0.5,0.5 h 0.5 l 1,0.5 0.5,0.5 h 0.5 l 0.5,0.5 0.5,0.5 h 1 l 0.5,0.5 0.5,0.5 h 0.5 l 0.5,0.5 1,0.5 h 0.5 l 0.5,0.5 h 0.5 l 0.5,0.5 0.5,0.5 h 1 l 0.5,0.5 0.5,0.5 h 0.5 l 0.5,0.5 h 1 l 0.5,0.5 0.5,0.5 h 0.5 l 0.5,0.5 1,0.5 h 0.5 l 0.5,0.5 h 0.5 l 0.5,0.5 1,0.5 h 0.5 l 0.5,0.5 h 0.5 l 0.5,0.5 0.5,0.5 h 1 l 0.5,0.5 h 0.5 l 0.5,0.5 h 0.5 l 1,0.5 0.5,0.5" /><path
       inkscape:connector-curvature="0"
       id="path5606"
       style="fill:none;stroke:#0000ff;stroke-width:10;stroke-linecap:butt;stroke-linejoin:miter;stroke-miterlimit:3.79999995;stroke-dasharray:none;stroke-opacity:1"
       d="m 2205.5,2057 h 0.5 l 0.5,0.5 h 0.5 l 1,0.5 0.5,0.5 h 0.5 l 0.5,0.5 h 0.5 l 0.5,0.5 h 1 l 0.5,0.5 h 0.5 l 0.5,0.5 0.5,0.5 h 1 l 0.5,0.5 h 0.5 l 0.5,0.5 h 0.5 l 1,0.5 h 0.5 l 0.5,0.5 0.5,0.5 h 0.5 l 1,0.5 h 0.5 l 0.5,0.5 h 0.5 l 0.5,0.5 h 0.5 l 1,0.5 h 0.5 l 0.5,0.5 h 0.5 l 0.5,0.5 h 1 l 0.5,0.5 h 0.5 l 0.5,0.5 0.5,0.5 h 1 l 0.5,0.5 h 0.5 l 0.5,0.5 h 0.5 l 0.5,0.5 h 1 l 0.5,0.5 h 0.5 l 0.5,0.5 h 0.5 l 1,0.5 h 0.5 l 0.5,0.5 h 0.5 l 0.5,0.5 h 1 l 0.5,0.5 h 0.5 l 0.5,0.5 h 1.5 l 0.5,0.5 h 0.5 l 0.5,0.5 h 0.5 l 0.5,0.5 h 1 l 0.5,0.5 h 0.5 l 0.5,0.5 h 0.5 l 1,0.5 h 0.5 l 0.5,0.5 h 0.5 l 0.5,0.5 h 1.5 l 0.5,0.5 h 0.5 l 0.5,0.5 h 0.5 l 1,0.5 h 0.5 l 0.5,0.5 h 0.5 l 0.5,0.5 h 1.5 l 0.5,0.5 h 0.5 l 0.5,0.5 h 1 l 0.5,0.5 h 1 l 0.5,0.5 h 0.5 l 1,0.5 h 0.5 l 0.5,0.5 h 1" /><path
       inkscape:connector-curvature="0"
       id="path5608"
       style="fill:none;stroke:#0000ff;stroke-width:10;stroke-linecap:butt;stroke-linejoin:miter;stroke-miterlimit:3.79999995;stroke-dasharray:none;stroke-opacity:1"
       d="m 2267,2082.5 1,0.5 h 0.5 l 0.5,0.5 h 0.5 l 0.5,0.5 h 1.5 l 0.5,0.5 h 0.5 l 0.5,0.5 h 1.5 l 0.5,0.5 h 0.5 l 0.5,0.5 h 0.5 l 1,0.5 h 1 l 0.5,0.5 h 0.5 l 1,0.5 h 1 l 0.5,0.5 h 0.5 l 1,0.5 h 1 l 0.5,0.5 h 1 l 1,0.5 h 0.5 l 0.5,0.5 h 1 l 1,0.5 h 0.5 l 0.5,0.5 h 1 l 1,0.5 h 1 l 0.5,0.5 h 0.5 l 1,0.5 h 1 l 0.5,0.5 h 1 l 1,0.5 h 1 l 0.5,0.5 h 0.5 l 1,0.5 h 1 l 0.5,0.5 h 1.5 l 0.5,0.5 h 1 l 0.5,0.5 h 1.5 l 0.5,0.5 h 1 l 0.5,0.5 h 1.5 l 0.5,0.5 h 1 l 1,0.5 h 1 l 0.5,0.5 h 1.5 l 0.5,0.5 h 1 l 0.5,0.5 h 1.5 l 0.5,0.5 h 1 l 0.5,0.5 h 1.5 l 0.5,0.5 h 1 l 1,0.5 h 1 l 0.5,0.5" /><path
       inkscape:connector-curvature="0"
       id="path5610"
       style="fill:none;stroke:#0000ff;stroke-width:10;stroke-linecap:butt;stroke-linejoin:miter;stroke-miterlimit:3.79999995;stroke-dasharray:none;stroke-opacity:1"
       d="m 2329,2102 h 1 l 1,0.5 h 1 l 0.5,0.5 h 2 l 0.5,0.5 h 1 l 1,0.5 h 1 l 0.5,0.5 h 2 l 0.5,0.5 h 1 l 0.5,0.5 h 1.5 l 0.5,0.5 h 2 l 0.5,0.5 h 1 l 0.5,0.5 h 2 l 0.5,0.5 h 1 l 1,0.5 h 1.5 l 0.5,0.5 h 2 l 0.5,0.5 h 1.5 l 0.5,0.5 h 1.5 l 0.5,0.5 h 2 l 0.5,0.5 h 1.5 l 0.5,0.5 h 1.5 l 1,0.5 h 1.5 l 0.5,0.5 h 2 l 0.5,0.5 h 2 l 0.5,0.5 h 1.5 l 1,0.5 h 1.5 l 0.5,0.5 h 2 l 0.5,0.5 h 2 l 0.5,0.5 h 1.5 l 1,0.5 h 1.5 l 0.5,0.5 h 1.5" /><path
       inkscape:connector-curvature="0"
       id="path5612"
       style="fill:none;stroke:#0000ff;stroke-width:10;stroke-linecap:butt;stroke-linejoin:miter;stroke-miterlimit:3.79999995;stroke-dasharray:none;stroke-opacity:1"
       d="m 2391,2116 h 1 l 0.5,0.5 h 2 l 0.5,0.5 h 2 l 0.5,0.5 h 2.5 l 0.5,0.5 h 1.5 l 1,0.5 h 2 l 0.5,0.5 h 2 l 0.5,0.5 h 2.5 l 0.5,0.5 h 2.5 l 0.5,0.5 h 2 l 0.5,0.5 h 2.5 l 0.5,0.5 h 2.5 l 0.5,0.5 h 2.5 l 0.5,0.5 h 2 l 1,0.5 h 2 l 1,0.5 h 2 l 1,0.5 h 2.5 l 1,0.5 h 2 l 1,0.5 h 2 l 1,0.5 h 3 l 0.5,0.5 h 2 l 1,0.5 h 2" /><path
       inkscape:connector-curvature="0"
       id="path5614"
       style="fill:none;stroke:#0000ff;stroke-width:10;stroke-linecap:butt;stroke-linejoin:miter;stroke-miterlimit:3.79999995;stroke-dasharray:none;stroke-opacity:1"
       d="m 2452.5,2126.5 h 1 l 0.5,0.5 h 3 l 0.5,0.5 h 2.5 l 0.5,0.5 h 3 l 0.5,0.5 h 3 l 0.5,0.5 h 3 l 0.5,0.5 h 3 l 0.5,0.5 h 4 l 0.5,0.5 h 3 l 0.5,0.5 h 3.5 l 0.5,0.5 h 3 l 0.5,0.5 h 3.5 l 1,0.5 h 3.5 l 0.5,0.5 h 3.5 l 0.5,0.5 h 3.5 l 1,0.5 h 3.5 l 0.5,0.5 h 3.5" /><path
       inkscape:connector-curvature="0"
       id="path5616"
       style="fill:none;stroke:#0000ff;stroke-width:10;stroke-linecap:butt;stroke-linejoin:miter;stroke-miterlimit:3.79999995;stroke-dasharray:none;stroke-opacity:1"
       d="m 2514.5,2134.5 0.5,0.5 h 4.5 l 0.5,0.5 h 4 l 0.5,0.5 h 3.5 l 1,0.5 h 4 l 0.5,0.5 h 4 l 1,0.5 h 4.5 l 0.5,0.5 h 4.5 l 0.5,0.5 h 4.5 l 1,0.5 h 4.5 l 0.5,0.5 h 5 l 0.5,0.5 h 4.5 l 1,0.5 h 5 l 1,0.5 h 0.5" /><path
       inkscape:connector-curvature="0"
       id="path5618"
       style="fill:none;stroke:#0000ff;stroke-width:10;stroke-linecap:butt;stroke-linejoin:miter;stroke-miterlimit:3.79999995;stroke-dasharray:none;stroke-opacity:1"
       d="m 2576.5,2141 h 4 l 0.5,0.5 h 5.5 l 0.5,0.5 h 5.5 l 0.5,0.5 h 6 l 0.5,0.5 h 6 l 0.5,0.5 h 6 l 0.5,0.5 h 6 l 0.5,0.5 h 6.5 l 1,0.5 h 6.5 l 0.5,0.5 h 4.5" /><path
       inkscape:connector-curvature="0"
       id="path5620"
       style="fill:none;stroke:#0000ff;stroke-width:10;stroke-linecap:butt;stroke-linejoin:miter;stroke-miterlimit:3.79999995;stroke-dasharray:none;stroke-opacity:1"
       d="m 2638,2145.5 h 2 l 0.5,0.5 h 7 l 1,0.5 h 7 l 0.5,0.5 h 7 l 1,0.5 h 7.5 l 0.5,0.5 h 8.5 l 0.5,0.5 h 8.5 l 0.5,0.5 h 9 l 0.5,0.5 h 0.5" /><path
       inkscape:connector-curvature="0"
       id="path5622"
       style="fill:none;stroke:#0000ff;stroke-width:10;stroke-linecap:butt;stroke-linejoin:miter;stroke-miterlimit:3.79999995;stroke-dasharray:none;stroke-opacity:1"
       d="m 2700,2149.5 h 8.5 l 0.5,0.5 h 9 l 0.5,0.5 h 10 l 0.5,0.5 h 10.5 l 0.5,0.5 h 10.5 l 0.5,0.5 h 11" /><path
       inkscape:connector-curvature="0"
       id="path5624"
       style="fill:none;stroke:#0000ff;stroke-width:10;stroke-linecap:butt;stroke-linejoin:miter;stroke-miterlimit:3.79999995;stroke-dasharray:none;stroke-opacity:1"
       d="m 2762,2152 h 0.5 l 0.5,0.5 h 11.5 l 0.5,0.5 h 12.5 l 0.5,0.5 h 13 l 0.5,0.5 h 14 l 0.5,0.5 h 7.5" /><path
       inkscape:connector-curvature="0"
       id="path5626"
       style="fill:none;stroke:#0000ff;stroke-width:10;stroke-linecap:butt;stroke-linejoin:miter;stroke-miterlimit:3.79999995;stroke-dasharray:none;stroke-opacity:1"
       d="m 2823.5,2154.5 h 7.5 l 0.5,0.5 h 15 l 0.5,0.5 h 16.5 l 0.5,0.5 h 17.5 l 0.5,0.5 h 3.5" /><path
       inkscape:connector-curvature="0"
       id="path5628"
       style="fill:none;stroke:#0000ff;stroke-width:10;stroke-linecap:butt;stroke-linejoin:miter;stroke-miterlimit:3.79999995;stroke-dasharray:none;stroke-opacity:1"
       d="m 2885.5,2156.5 h 15.5 l 0.5,0.5 h 20.5 l 0.5,0.5 h 21.5 l 0.5,0.5 h 3" /><path
       inkscape:connector-curvature="0"
       id="path5630"
       style="fill:none;stroke:#0000ff;stroke-width:10;stroke-linecap:butt;stroke-linejoin:miter;stroke-miterlimit:3.79999995;stroke-dasharray:none;stroke-opacity:1"
       d="m 2947.5,2158 h 20.5 l 0.5,0.5 h 26 l 0.5,0.5 h 14" /><path
       inkscape:connector-curvature="0"
       id="path5632"
       style="fill:none;stroke:#0000ff;stroke-width:10;stroke-linecap:butt;stroke-linejoin:miter;stroke-miterlimit:3.79999995;stroke-dasharray:none;stroke-opacity:1"
       d="m 3009,2159 h 14.5 l 0.5,0.5 h 31.5 l 0.5,0.5 h 15" /><path
       inkscape:connector-curvature="0"
       id="path5634"
       style="fill:none;stroke:#0000ff;stroke-width:10;stroke-linecap:butt;stroke-linejoin:miter;stroke-miterlimit:3.79999995;stroke-dasharray:none;stroke-opacity:1"
       d="m 3071,2160 h 20 l 1,0.5 h 39.5 l 0.5,0.5 h 1" /><path
       inkscape:connector-curvature="0"
       id="path5636"
       style="fill:none;stroke:#0000ff;stroke-width:10;stroke-linecap:butt;stroke-linejoin:miter;stroke-miterlimit:3.79999995;stroke-dasharray:none;stroke-opacity:1"
       d="m 3133,2161 h 45.5 l 0.5,0.5 h 15.5" /><path
       inkscape:connector-curvature="0"
       id="path5638"
       style="fill:none;stroke:#0000ff;stroke-width:10;stroke-linecap:butt;stroke-linejoin:miter;stroke-miterlimit:3.79999995;stroke-dasharray:none;stroke-opacity:1"
       d="m 3194.5,2161.5 h 38 l 1,0.5 h 23" /><path
       inkscape:connector-curvature="0"
       id="path5640"
       style="fill:none;stroke:#0000ff;stroke-width:10;stroke-linecap:butt;stroke-linejoin:miter;stroke-miterlimit:3.79999995;stroke-dasharray:none;stroke-opacity:1"
       d="m 3256.5,2162 h 41.5 l 0.5,0.5 h 20" /><path
       inkscape:connector-curvature="0"
       id="path5642"
       style="fill:none;stroke:#0000ff;stroke-width:10;stroke-linecap:butt;stroke-linejoin:miter;stroke-miterlimit:3.79999995;stroke-dasharray:none;stroke-opacity:1"
       d="m 3318.5,2162.5 h 60 l 0.5,0.5 h 1" /><path
       inkscape:connector-curvature="0"
       id="path5644"
       style="fill:none;stroke:#0000ff;stroke-width:10;stroke-linecap:butt;stroke-linejoin:miter;stroke-miterlimit:3.79999995;stroke-dasharray:none;stroke-opacity:1"
       d="m 3380,2163 h 62" /><path
       inkscape:connector-curvature="0"
       id="path5646"
       style="fill:none;stroke:#0000ff;stroke-width:10;stroke-linecap:butt;stroke-linejoin:miter;stroke-miterlimit:3.79999995;stroke-dasharray:none;stroke-opacity:1"
       d="m 3442,2163 h 41.5 l 0.5,0.5 h 20" /><path
       inkscape:connector-curvature="0"
       id="path5648"
       style="fill:none;stroke:#0000ff;stroke-width:10;stroke-linecap:butt;stroke-linejoin:miter;stroke-miterlimit:3.79999995;stroke-dasharray:none;stroke-opacity:1"
       d="m 3504,2163.5 h 61.5" /><path
       inkscape:connector-curvature="0"
       id="path5650"
       style="fill:none;stroke:#0000ff;stroke-width:10;stroke-linecap:butt;stroke-linejoin:miter;stroke-miterlimit:3.79999995;stroke-dasharray:none;stroke-opacity:1"
       d="m 3565.5,2163.5 h 62" /><path
       inkscape:connector-curvature="0"
       id="path5652"
       style="fill:none;stroke:#0000ff;stroke-width:10;stroke-linecap:butt;stroke-linejoin:miter;stroke-miterlimit:3.79999995;stroke-dasharray:none;stroke-opacity:1"
       d="m 3627.5,2163.5 h 3.5 l 0.5,0.5 h 58" /><path
       inkscape:connector-curvature="0"
       id="path5654"
       style="fill:none;stroke:#0000ff;stroke-width:10;stroke-linecap:butt;stroke-linejoin:miter;stroke-miterlimit:3.79999995;stroke-dasharray:none;stroke-opacity:1"
       d="M 3689.5,2164 H 3751" /><path
       inkscape:connector-curvature="0"
       id="path5656"
       style="fill:none;stroke:#0000ff;stroke-width:10;stroke-linecap:butt;stroke-linejoin:miter;stroke-miterlimit:3.79999995;stroke-dasharray:none;stroke-opacity:1"
       d="m 3751,2164 h 62" /><path
       inkscape:connector-curvature="0"
       id="path5658"
       style="fill:none;stroke:#0000ff;stroke-width:10;stroke-linecap:butt;stroke-linejoin:miter;stroke-miterlimit:3.79999995;stroke-dasharray:none;stroke-opacity:1"
       d="m 3813,2164 h 58 l 1,0.5 h 2.5" /><path
       inkscape:connector-curvature="0"
       id="path5660"
       style="fill:none;stroke:#0000ff;stroke-width:10;stroke-linecap:butt;stroke-linejoin:miter;stroke-miterlimit:3.79999995;stroke-dasharray:none;stroke-opacity:1"
       d="M 3874.5,2164.5 H 3901 L 929,2165" /><path
       inkscape:connector-curvature="0"
       id="path5662"
       style="fill:none;stroke:#000000;stroke-width:5;stroke-linecap:butt;stroke-linejoin:miter;stroke-miterlimit:3.79999995;stroke-dasharray:none;stroke-opacity:1"
       d="M 929,720 H 3901.5 V 2887.5 H 929 Z" /></g></g></g></svg>